<svg xmlns="http://www.w3.org/2000/svg" width="382.034" height="222" viewBox="0 0 382.034 222"><g data-name="Group 40" opacity=".1"><path data-name="Path 492" d="M.209 55.36v27.678c.482.531-.654.569 0 .569 8.072.007 15.869.013 23.941 0a1.841 1.841 0 0 0 2.188-2.278q.02-12.173 0-24.347a1.8 1.8 0 0 0-2.254-2.186c-8.048-.012-15.826-.012-23.875 0-.655 0 .484.037 0 .57z" fill="#6b6b6b"/><path data-name="Path 493" d="M25.773 110.713H.212v27.677c.482.53-.653.569 0 .57 8.066.007 15.855.012 23.92 0a2.453 2.453 0 0 0 1.688-.45 2.369 2.369 0 0 0 .519-1.807q.021-12.109 0-24.218a2.434 2.434 0 0 0-.35-1.589c-.077-.061-.145-.125-.216-.183z" fill="#a6a6a6"/><path data-name="Path 494" d="M25.773 138.39H.209v27.679h25.564c.069-.06.138-.119.209-.178a2.626 2.626 0 0 0 .355-1.722q.016-11.939 0-23.88a2.643 2.643 0 0 0-.352-1.723z" fill="#6b6b6b"/><path data-name="Path 495" d="M25.773 166.069v27.678a2.175 2.175 0 0 0 1.772.569q12.107.012 24.213 0a1.841 1.841 0 0 0 2.19-2.275q.021-12.1 0-24.2a2.584 2.584 0 0 0-.464-1.831 2.393 2.393 0 0 0-1.806-.507q-12.066-.022-24.132 0a2.182 2.182 0 0 0-1.776.57z" fill="#6b6b6b"/><path data-name="Path 496" d="M53.385 110.713H25.774v27.678a2.182 2.182 0 0 0 1.771.569q12.1.011 24.2 0a2.449 2.449 0 0 0 1.689-.45 2.366 2.366 0 0 0 .519-1.8q.021-12.118 0-24.236a2.426 2.426 0 0 0-.351-1.581z" fill="#a4a4a4"/><path data-name="Path 497" d="M53.385 138.39H25.773v27.677h27.611a8.87 8.87 0 0 1 .209-.177 2.62 2.62 0 0 0 .355-1.722q.015-11.94 0-23.881a2.643 2.643 0 0 0-.353-1.723z" fill="#a4a4a4"/><path data-name="Path 498" d="M53.386 55.36v27.678a2.178 2.178 0 0 0 1.773.569q12.107.011 24.214 0a1.84 1.84 0 0 0 2.189-2.275q.022-12.1 0-24.2a2.592 2.592 0 0 0-.464-1.832 2.393 2.393 0 0 0-1.807-.507q-12.065-.022-24.13 0a2.182 2.182 0 0 0-1.775.567z" fill="#6b6b6b"/><path data-name="Path 499" d="M80.996 83.036H53.385v27.678a2.179 2.179 0 0 0 1.772.569q12.1.011 24.2 0a2.454 2.454 0 0 0 1.688-.45 2.359 2.359 0 0 0 .519-1.8q.022-12.118 0-24.236a2.422 2.422 0 0 0-.352-1.581 10.29 10.29 0 0 0-.216-.18z" fill="#aaa"/><path data-name="Path 500" d="M80.994 193.746H53.385v27.678a2.175 2.175 0 0 0 1.771.568q12.093.012 24.185 0a2.8 2.8 0 0 0 1.47-.262 1.231 1.231 0 0 0 .421-.357 3.267 3.267 0 0 0 .33-1.872q.013-11.859 0-23.719a2.85 2.85 0 0 0-.354-1.858c-.071-.061-.143-.12-.214-.178z" fill="#aaa"/><path data-name="Path 501" d="M80.996 110.713H53.385v27.678a2.178 2.178 0 0 0 1.772.569q12.1.011 24.2 0a2.453 2.453 0 0 0 1.688-.45 2.375 2.375 0 0 0 .519-1.807q.021-12.108 0-24.218a2.436 2.436 0 0 0-.352-1.589z" fill="#6b6b6b"/><path data-name="Path 502" d="M80.995 138.39H53.384v27.678h27.612l.209-.178a2.628 2.628 0 0 0 .355-1.722q.015-11.939 0-23.88a2.639 2.639 0 0 0-.353-1.723c-.07-.058-.14-.114-.212-.175z" fill="#a8a8a8"/><path data-name="Path 503" d="M80.995 55.361v27.677a2.182 2.182 0 0 0 1.774.569q12.113.012 24.227 0a1.8 1.8 0 0 0 2.177-2.262q.019-12.1 0-24.207a2.591 2.591 0 0 0-.462-1.833 2.39 2.39 0 0 0-1.806-.508q-12.065-.022-24.132 0a2.181 2.181 0 0 0-1.776.569z" fill="#adadad"/><path data-name="Path 504" d="M81 166.069v27.678a2.177 2.177 0 0 0 1.772.568q12.1.011 24.2 0a2.771 2.771 0 0 0 1.47-.267 1.215 1.215 0 0 0 .419-.364 3.322 3.322 0 0 0 .321-1.873q.014-11.858 0-23.714a2.889 2.889 0 0 0-.476-2.1 2.439 2.439 0 0 0-1.811-.494q-12.057-.02-24.115 0a2.179 2.179 0 0 0-1.775.569z" fill="#ababab"/><path data-name="Path 505" d="M163.831 193.75l28.188-.013v-27.669c-.48-.534.653-.57 0-.571-8.065-.008-18.479-.013-26.544 0a2.458 2.458 0 0 0-1.688.451 2.363 2.363 0 0 0-.518 1.8q-.022 12.118 0 24.237a2.434 2.434 0 0 0 .349 1.582c.069.065.14.124.213.183z" fill="#fff"/><path data-name="Path 506" d="M163.832 166.068h28.187v-27.681c-.48-.533.653-.57 0-.571-8.065-.008-18.478-.012-26.543 0a2.456 2.456 0 0 0-1.688.45 2.372 2.372 0 0 0-.519 1.808q-.022 12.108 0 24.217a2.435 2.435 0 0 0 .351 1.589c.068.07.14.129.212.188z" fill="#c4c4c4"/><path data-name="Path 507" d="M163.832 138.39h28.187v-27.679c-.48-.533.652-.568 0-.568-8.064-.008-18.479-.012-26.544 0a2.455 2.455 0 0 0-1.689.45 2.374 2.374 0 0 0-.518 1.808q-.022 12.108 0 24.217a2.439 2.439 0 0 0 .351 1.59q.104.093.213.182z" fill="#eee"/><path data-name="Path 508" d="M163.835 110.713h28.184V83.038c-.481-.531.653-.567 0-.568-8.065-.007-18.479-.012-26.544 0a2.452 2.452 0 0 0-1.688.45 2.362 2.362 0 0 0-.518 1.8q-.022 12.119 0 24.237a2.418 2.418 0 0 0 .352 1.58l.214.176z" fill="#afafaf"/><path data-name="Path 509" d="M163.834 83.035h28.185V55.36c-.483-.529.653-.566 0-.567-8.065-.008-18.478-.013-26.543 0a2.455 2.455 0 0 0-1.688.45 2.361 2.361 0 0 0-.519 1.8q-.022 12.118 0 24.236a2.427 2.427 0 0 0 .351 1.581z" fill="#ababab"/><path data-name="Path 510" d="M163.833 55.356h28.186V27.678c-.482-.53.653-.569 0-.569-8.066-.008-18.478-.013-26.543 0a2.456 2.456 0 0 0-1.688.45 2.37 2.37 0 0 0-.519 1.808q-.021 12.109 0 24.218a2.435 2.435 0 0 0 .352 1.589c.069.064.141.123.212.182z" fill="#adadad"/><path data-name="Path 511" d="M108.602 110.713h-27.61v27.678a2.175 2.175 0 0 0 1.771.57q12.1.011 24.2 0a2.453 2.453 0 0 0 1.689-.45 2.361 2.361 0 0 0 .519-1.8q.022-12.118 0-24.236a2.422 2.422 0 0 0-.352-1.581z" fill="#adadad"/><path data-name="Path 512" d="M108.606 138.391H81.001v27.679h27.6c.07-.06.139-.118.211-.177a2.624 2.624 0 0 0 .357-1.721q.016-11.94 0-23.881a2.643 2.643 0 0 0-.354-1.723z" fill="#6b6b6b"/><path data-name="Path 513" d="M108.609.001v27.677a2.179 2.179 0 0 0 1.771.569q12.1.011 24.2 0a2.773 2.773 0 0 0 1.47-.268 1.239 1.239 0 0 0 .419-.364 3.328 3.328 0 0 0 .32-1.871q.013-11.845 0-23.69a2.482 2.482 0 0 0-.567-2.051h-27.613z" fill="#6b6b6b"/><path data-name="Path 514" d="M108.606 83.035v27.677a2.178 2.178 0 0 0 1.771.569q12.1.012 24.195 0a2.789 2.789 0 0 0 1.47-.266 1.223 1.223 0 0 0 .418-.362 2.656 2.656 0 0 0 .32-1.465q.022-12.594 0-25.186c0-.324-.058-.643-.07-.965.173-3.951.054-7.9.073-11.854.021-4.6.012-9.191 0-13.787a2.929 2.929 0 0 0-.469-2.1 2.413 2.413 0 0 0-1.807-.5q-12.063-.021-24.124 0a2.181 2.181 0 0 0-1.776.569l-.001 27.67z" fill="#6b6b6b"/><path data-name="Path 515" d="M108.61 193.748h27.612v-.007a2.186 2.186 0 0 0 .567-1.776q.011-12.127 0-24.254a2.792 2.792 0 0 0-.267-1.473 1.215 1.215 0 0 0-.363-.419 3.3 3.3 0 0 0-1.866-.321q-11.815-.013-23.631 0a2.45 2.45 0 0 0-2.045.569h-.005q-.005 13.841-.002 27.681z" fill="#6b6b6b"/><path data-name="Path 516" d="M136.221 166.068h27.612v-27.677a2.189 2.189 0 0 0-1.772-.567q-12.1-.011-24.2 0a2.767 2.767 0 0 0-1.47.268 1.216 1.216 0 0 0-.419.364 3.325 3.325 0 0 0-.32 1.871q-.013 11.845 0 23.689a2.476 2.476 0 0 0 .567 2.051z" fill="#b1b1b1"/><path data-name="Path 517" d="M136.222 138.391h27.611v-27.677h-.005a2.174 2.174 0 0 0-1.771-.569q-12.033-.013-24.066 0a2.179 2.179 0 0 0-1.771.569 2.193 2.193 0 0 0-.568 1.778q-.013 12.069 0 24.14c.005.64-.03 1.306.57 1.759z" fill="#b1b1b1"/><path data-name="Path 518" d="M136.22 110.713h27.609V83.036a2.171 2.171 0 0 0-1.771-.57q-12.034-.014-24.067 0a2.181 2.181 0 0 0-1.772.569l.001 27.678z" fill="#c2c2c2"/><path data-name="Path 519" d="M136.22 83.035h27.61V55.356a2.177 2.177 0 0 0-1.772-.569q-12.033-.015-24.067 0a2.178 2.178 0 0 0-1.772.569z" fill="#6b6b6b"/><path data-name="Path 520" d="M136.221 138.391v-27.678h-27.61v27.679a2.173 2.173 0 0 0 1.771.569q12.034.014 24.067 0a2.177 2.177 0 0 0 1.771-.569z" fill="#bebebe"/><path data-name="Path 521" d="M136.219 138.39H108.61v27.678h27.609z" fill="#aaa"/><path data-name="Path 522" d="M355.891 55.36v27.678c-.481.531.654.569 0 .569-8.071.007-15.868.013-23.94 0a1.841 1.841 0 0 1-2.188-2.278q-.02-12.173 0-24.347a1.8 1.8 0 0 1 2.254-2.186c8.048-.012 15.826-.012 23.874 0 .656 0-.483.037 0 .57z" fill="#6b6b6b"/><path data-name="Path 523" d="M356.263 110.557h25.563v27.677c-.481.53.653.569 0 .57-8.066.007-15.854.012-23.92 0a2.454 2.454 0 0 1-1.689-.45 2.373 2.373 0 0 1-.519-1.808q-.021-12.109 0-24.218a2.434 2.434 0 0 1 .351-1.589q.105-.098.214-.182z" fill="#a6a6a6"/><path data-name="Path 524" d="M302.716 83.036h27.611v27.678a2.177 2.177 0 0 1-1.771.569q-12.1.011-24.2 0a2.455 2.455 0 0 1-1.689-.45 2.363 2.363 0 0 1-.518-1.8q-.021-12.118 0-24.236a2.427 2.427 0 0 1 .351-1.581 6.86 6.86 0 0 1 .216-.18z" fill="#6c6c6c"/><path data-name="Path 525" d="M302.716 193.745h27.61v27.678a2.175 2.175 0 0 1-1.771.57q-12.1.011-24.2 0a2.454 2.454 0 0 1-1.689-.45 2.363 2.363 0 0 1-.519-1.8q-.021-12.118 0-24.236a2.425 2.425 0 0 1 .351-1.581l.218-.181z" fill="#a8a8a8"/><path data-name="Path 526" d="M302.716 110.713h27.611v27.678a2.183 2.183 0 0 1-1.771.569q-12.1.011-24.2 0a2.449 2.449 0 0 1-1.689-.45 2.362 2.362 0 0 1-.519-1.8q-.021-12.118 0-24.236a2.427 2.427 0 0 1 .351-1.581z" fill="#a4a4a4"/><path data-name="Path 527" d="M302.717 138.39h27.612v27.677h-27.61a8.87 8.87 0 0 0-.209-.177 2.624 2.624 0 0 1-.356-1.722q-.014-11.94 0-23.881a2.642 2.642 0 0 1 .353-1.723z" fill="#a4a4a4"/><path data-name="Path 528" d="M302.715 55.36v27.678a2.178 2.178 0 0 1-1.773.569q-12.107.011-24.214 0a1.84 1.84 0 0 1-2.189-2.275q-.022-12.1 0-24.2a2.594 2.594 0 0 1 .464-1.832 2.393 2.393 0 0 1 1.806-.507q12.065-.022 24.13 0a2.182 2.182 0 0 1 1.776.567z" fill="#6b6b6b"/><path data-name="Path 529" d="M302.715 55.354h-27.609l-.21-.177a2.623 2.623 0 0 1-.356-1.721q-.015-11.94 0-23.881a2.637 2.637 0 0 1 .353-1.723c.07-.06.141-.118.212-.176h27.609l.001 27.678z" fill="#ababab"/><path data-name="Path 530" d="M275.101 83.036h27.611v27.678a2.179 2.179 0 0 1-1.771.569q-12.1.011-24.2 0a2.453 2.453 0 0 1-1.688-.45 2.358 2.358 0 0 1-.519-1.8q-.022-12.118 0-24.236a2.42 2.42 0 0 1 .352-1.581l.215-.18z" fill="#aaa"/><path data-name="Path 531" d="M275.1 110.713h27.611v27.678a2.177 2.177 0 0 1-1.771.569q-12.1.011-24.2 0a2.452 2.452 0 0 1-1.688-.45 2.373 2.373 0 0 1-.52-1.807q-.021-12.108 0-24.218a2.429 2.429 0 0 1 .352-1.589q.116-.094.216-.183z" fill="#6b6b6b"/><path data-name="Path 532" d="M275.101 138.39h27.611v27.678h-27.611c-.069-.06-.139-.119-.21-.178a2.632 2.632 0 0 1-.355-1.722q-.015-11.939 0-23.88a2.642 2.642 0 0 1 .353-1.723c.074-.058.145-.114.212-.175z" fill="#a8a8a8"/><path data-name="Path 533" d="M275.103 55.354h-27.609l-.209-.177a2.623 2.623 0 0 1-.356-1.721q-.015-11.94 0-23.881a2.642 2.642 0 0 1 .353-1.723c.07-.06.141-.118.212-.176h27.611l-.002 27.678z" fill="#afafaf"/><path data-name="Path 534" d="M247.495 83.038h27.609v27.678a2.052 2.052 0 0 1-1.635.566q-12.245.018-24.491 0a2.23 2.23 0 0 1-1.547-.461 2.422 2.422 0 0 1-.5-1.813q-.022-12.1 0-24.2a1.955 1.955 0 0 1 .564-1.77z" fill="#ababab"/><path data-name="Path 535" d="M247.493 193.746h27.609v27.678h-27.608a2.2 2.2 0 0 1-.566-1.779q-.013-12.071 0-24.14c.001-.639-.035-1.305.565-1.759z" fill="#adadad"/><path data-name="Path 536" d="M247.494 138.391h27.609v27.679h-27.608c-.07-.06-.139-.118-.211-.177a2.621 2.621 0 0 1-.357-1.721q-.015-11.94 0-23.881a2.638 2.638 0 0 1 .354-1.723c.07-.061.142-.118.213-.177z" fill="#bebebe"/><path data-name="Path 537" d="M247.495 83.035v27.677a2.177 2.177 0 0 1-1.771.569q-12.1.012-24.195 0a2.789 2.789 0 0 1-1.47-.266 1.237 1.237 0 0 1-.419-.362 2.662 2.662 0 0 1-.319-1.465q-.022-12.594 0-25.186c0-.324.058-.643.07-.965-.173-3.951-.054-7.9-.073-11.854-.021-4.6-.012-9.191 0-13.787a2.934 2.934 0 0 1 .469-2.1 2.417 2.417 0 0 1 1.808-.5q12.063-.021 24.124 0a2.18 2.18 0 0 1 1.776.569v27.67z" fill="#bebebe"/><path data-name="Path 538" d="M219.88 166.068h-28.179v-27.677c.483-.528-.654-.567 0-.567 8.066-.007 18.472-.01 26.538 0a2.767 2.767 0 0 1 1.47.268 1.22 1.22 0 0 1 .419.364 3.32 3.32 0 0 1 .32 1.871q.013 11.845 0 23.689a2.475 2.475 0 0 1-.567 2.051z" fill="#b1b1b1"/><path data-name="Path 539" d="M219.88 138.391h-28.179v-27.677c.482-.531-.653-.568 0-.569 8.022-.009 18.386-.009 26.408 0a2.179 2.179 0 0 1 1.772.569 2.193 2.193 0 0 1 .568 1.778q.013 12.069 0 24.14c-.006.64.03 1.306-.569 1.759z" fill="#626262"/><path data-name="Path 540" d="M219.88 110.713H191.7V83.036c.481-.532-.654-.57 0-.57 8.022-.01 18.386-.01 26.408 0a2.181 2.181 0 0 1 1.772.569v27.678z" fill="#c2c2c2"/><path data-name="Path 541" d="M219.88 55.356H191.7V27.678c.482-.53-.654-.569 0-.569 8.022-.009 18.385-.009 26.408 0a2.18 2.18 0 0 1 1.772.569v27.678z" fill="#bebebe"/><path data-name="Path 542" d="M219.88 138.391v-27.678h27.61v27.679a2.174 2.174 0 0 1-1.772.569q-12.033.014-24.066 0a2.177 2.177 0 0 1-1.772-.569z" fill="#bebebe"/></g></svg>